<svg id="Group_802" data-name="Group 802" xmlns="http://www.w3.org/2000/svg" xmlns:xlink="http://www.w3.org/1999/xlink" width="30.122" height="23.034" viewBox="0 0 30.122 23.034">
  <defs>
    <clipPath id="clip-path">
      <rect id="Rectangle_1070" data-name="Rectangle 1070" width="30.122" height="23.034" fill="#6d7e4c"/>
    </clipPath>
  </defs>
  <g id="Group_801" data-name="Group 801" clip-path="url(#clip-path)">
    <path id="Path_982" data-name="Path 982" d="M105.118,48.847a8.811,8.811,0,0,0-6.487-2.809V45.78a9.193,9.193,0,0,1,6.276,2.491c.377.333.211.577.211.577" transform="translate(-89.479 -41.532)" fill="#6d7e4c"/>
    <path id="Path_983" data-name="Path 983" d="M15.439,32.92c-1.87,4.349-3.792,8.484-8.225,8.555A6.172,6.172,0,0,1,2.361,39.6a8.437,8.437,0,0,1-2.1-5.644,8.9,8.9,0,0,1,8.895-8.9V24.8A9.164,9.164,0,0,0,0,33.952a9.309,9.309,0,0,0,2.322,6.287,8.383,8.383,0,0,0,6.388,2.88c5.289-.023,6.933-3.112,8.5-7.3,1.154-3.087,4.11-13.247,10.063-12.859l.014-.258c-7.143-.79-10.81,7.807-11.846,10.216" transform="translate(0 -20.551)" fill="#6d7e4c"/>
    <path id="Path_984" data-name="Path 984" d="M98.47,14.488a6.675,6.675,0,0,0-4.854-4.029,5.137,5.137,0,0,0,.908-3.17C94.286,2.787,88.8.7,87.253.346,83.9-.421,80.881.088,78.685,1.824a7.343,7.343,0,0,0-2.806,5.794l0,.081a6.734,6.734,0,0,0,6.707,6.9,6.86,6.86,0,0,0,3.957-1.252.369.369,0,0,0,.084.011.393.393,0,0,0,.065-.006,6.781,6.781,0,0,0-.578,1.1,6.547,6.547,0,0,0,.112,5.287,4.929,4.929,0,1,0,4.641-7.056,6.462,6.462,0,0,0,2.58-1.989A6.415,6.415,0,0,1,94.7,22.946s.132.225.716-.049a6.687,6.687,0,0,0,3.057-8.409M92.62,16.36a3.351,3.351,0,0,1-3.327,3.376,3.27,3.27,0,0,1-3.4-3.3,6.4,6.4,0,0,1,4.815-5.658,6.573,6.573,0,0,1-2.227,2.35c.076-.018.228-.046.227-.046.085-.014.266-.036.269-.036.088-.009.177-.014.267-.015s.186.005.278.012.246.029.246.029A3.349,3.349,0,0,1,92.62,16.36m-.8-9.4a8.233,8.233,0,0,1-.941,3.51,6.639,6.639,0,0,0-2.688,1.253A6.86,6.86,0,0,0,89.49,7.7a6.406,6.406,0,0,0-6.325-6.424l-.049,0a5.472,5.472,0,0,0-5.2,7.17c.174.478.4.325.4.325A5.212,5.212,0,0,1,83.07,1.533h.049A6.147,6.147,0,0,1,89.232,7.7a6.633,6.633,0,0,1-2.5,5.187.367.367,0,0,0-.1-.015.279.279,0,0,0-.3.244.2.2,0,0,0,.012.065,6.609,6.609,0,0,1-3.749,1.162A6.479,6.479,0,0,1,76.14,7.7l0-.081a7.084,7.084,0,0,1,2.708-5.588A9.62,9.62,0,0,1,87.134.585a5.838,5.838,0,0,1,4.682,6.379" transform="translate(-68.838 0.001)" fill="#6d7e4c"/>
  </g>
</svg>
