<svg id="Group_813" data-name="Group 813" xmlns="http://www.w3.org/2000/svg" xmlns:xlink="http://www.w3.org/1999/xlink" width="1260" height="732" viewBox="0 0 629.904 365.744">
  <defs>
    <clipPath id="clip-path">
      <rect id="Rectangle_1072" data-name="Rectangle 1072" width="629.904" height="365.744" fill="#D9D9D9"/>
    </clipPath>
  </defs>
  <g id="Group_812" data-name="Group 812" clip-path="url(#clip-path)">
    <path id="Path_997" data-name="Path 997" d="M177.683,53.906a94.268,94.268,0,0,0-69.4-30.051V21.09a98.351,98.351,0,0,1,67.144,26.649c4.025,3.56,2.258,6.167,2.258,6.167" transform="translate(125.045 24.355)" fill="#D9D9D9"/>
    <path id="Path_998" data-name="Path 998" d="M228.016,120.284c-20.005,46.531-40.565,90.768-87.992,91.524-21.292.336-40.489-6.71-51.92-20.1-11.744-13.761-22.57-33.335-22.5-60.382a95.272,95.272,0,0,1,95.163-95.165V33.395a98.039,98.039,0,0,0-97.928,97.928c0,19.454,5.174,45.488,24.847,67.261,18.549,20.525,42.327,30.924,68.344,30.812,56.583-.248,74.175-33.3,90.912-78.076C259.292,118.3,290.918,9.6,354.6,13.743l.144-2.76C278.331,2.536,239.1,94.506,228.016,120.284" transform="translate(72.572 12.052)" fill="#D9D9D9"/>
    <path id="Path_999" data-name="Path 999" d="M339.494,155.013a71.414,71.414,0,0,0-51.935-43.1A54.97,54.97,0,0,0,297.275,78c-2.545-48.175-61.236-70.5-77.791-74.29-35.871-8.2-68.172-2.758-91.664,15.812A78.566,78.566,0,0,0,97.8,81.516l.028.868c0,41.4,31.516,73.837,71.749,73.837a73.389,73.389,0,0,0,42.336-13.4,3.958,3.958,0,0,0,.9.114,4.286,4.286,0,0,0,.7-.062,72.34,72.34,0,0,0-6.18,11.718c-12.963,29.644,1.2,56.566,1.2,56.566a52.733,52.733,0,1,0,49.651-75.494,69.163,69.163,0,0,0,27.6-21.275A68.635,68.635,0,0,1,299.137,245.5s1.407,2.416,7.656-.521a71.537,71.537,0,0,0,32.7-89.966M276.9,175.037a35.851,35.851,0,0,1-35.593,36.123c-19.708.147-36.279-14.1-36.378-35.3a68.471,68.471,0,0,1,51.509-60.535c-6.2,10.645-14.416,19.5-23.828,25.145.808-.2,2.441-.493,2.433-.489.911-.155,2.847-.384,2.881-.388.944-.091,1.89-.149,2.855-.155,1-.009,1.989.054,2.971.127.888.078,2.633.312,2.633.312A35.835,35.835,0,0,1,276.9,175.037M268.312,74.511a88.094,88.094,0,0,1-10.063,37.556,71.1,71.1,0,0,0-28.763,13.4,73.388,73.388,0,0,0,13.931-43.083c0-37.724-30.305-68.448-67.664-68.722l-.524-.022a58.536,58.536,0,0,0-55.605,76.707c1.864,5.111,4.251,3.48,4.251,3.48a55.763,55.763,0,0,1,50.856-77.421l.519.015c36.065,0,65.4,29.59,65.4,65.961a70.96,70.96,0,0,1-26.752,55.5,3.829,3.829,0,0,0-1.095-.166c-1.793,0-3.247,1.168-3.247,2.612a2.126,2.126,0,0,0,.129.69,70.692,70.692,0,0,1-40.114,12.438c-38.683,0-68.984-31.219-68.987-71.113l-.028-.873a75.791,75.791,0,0,1,28.974-59.777c22.675-17.93,54.14-23.382,88.682-15.429,37.856,10.578,51.2,36.416,50.1,68.245" transform="translate(112.94 0.001)" fill="#D9D9D9"/>
    <path id="Path_1000" data-name="Path 1000" d="M46.88,156.682c0,7.413-4.137,11.205-8.619,13.532,7.068,2.413,11.979,6.464,11.979,14.737,0,10.858-8.876,16.631-22.32,16.631H0V141.258H27.058c12.151,0,19.822,5.947,19.822,15.424m-10.6,1.726c0-4.913-3.792-7.755-10.6-7.755H10.425v16.028H24.9c6.809,0,11.377-2.672,11.377-8.272m3.359,25.423c0-5.172-4.049-8.188-12.41-8.188H10.425v16.547H28.006c7.238,0,11.634-2.842,11.634-8.359" transform="translate(0 163.128)" fill="#D9D9D9"/>
    <path id="Path_1001" data-name="Path 1001" d="M78.537,150.736H44.411v15.685H74.659V175.9H44.411v16.2H78.968v9.481H33.812V141.259H78.537Z" transform="translate(39.047 163.129)" fill="#D9D9D9"/>
    <path id="Path_1002" data-name="Path 1002" d="M104.093,201.584,89.27,180.555H76v21.029H65.4V141.258H92.287c13.875,0,22.406,7.326,22.406,19.133,0,10-5.945,16.03-14.39,18.355l16.286,22.839ZM91.425,150.909H76v20.253H91.511c7.585,0,12.41-3.963,12.41-10.169,0-6.637-4.652-10.085-12.5-10.085" transform="translate(75.524 163.128)" fill="#D9D9D9"/>
    <path id="Path_1003" data-name="Path 1003" d="M128.5,203.171c-18.872,0-31.284-13.442-31.284-31.111,0-16.976,12.927-31.282,31.111-31.282,10.513,0,16.978,2.931,23.182,8.188l-6.721,8.014c-4.654-3.963-9.22-6.464-16.892-6.464-11.117,0-19.561,9.654-19.561,21.372,0,12.5,8.186,21.632,20.51,21.632a24.608,24.608,0,0,0,14.564-4.568V177.662H127.985v-9.22h25.681V193.78a38.462,38.462,0,0,1-25.164,9.391" transform="translate(112.269 162.573)" fill="#D9D9D9"/>
    <path id="Path_1004" data-name="Path 1004" d="M179.464,150.736H145.338v15.685h30.249V175.9H145.338v16.2h34.557v9.481H134.738V141.259h44.725Z" transform="translate(155.598 163.129)" fill="#D9D9D9"/>
    <path id="Path_1005" data-name="Path 1005" d="M208.469,141.258H218.9v60.324H210.02l-33.266-42.918v42.918H166.327V141.258h9.824l32.318,41.709Z" transform="translate(192.077 163.128)" fill="#D9D9D9"/>
    <path id="Path_1006" data-name="Path 1006" d="M225.252,201.584H202.758V141.258h22.494c18.958,0,32.057,13.013,32.057,30.077s-13.1,30.249-32.057,30.249m0-50.675H213.358v41.021h11.895c12.668,0,20.941-8.531,20.941-20.423s-8.272-20.6-20.941-20.6" transform="translate(234.149 163.128)" fill="#D9D9D9"/>
    <path id="Path_1007" data-name="Path 1007" d="M297.248,201.813h-11.2l-6.118-14.562H251.4l-6.2,14.562H234.338l26.543-60.755H270.7Zm-31.626-48.087-10.343,24.13h20.77Z" transform="translate(270.618 162.897)" fill="#D9D9D9"/>
    <path id="Path_1008" data-name="Path 1008" d="M272.687,141.258h10.6v50.673H315v9.651H272.687Z" transform="translate(314.904 163.128)" fill="#D9D9D9"/>
  </g>
</svg>
