<svg xmlns="http://www.w3.org/2000/svg" width="32" height="32" viewBox="0 0 32 32">
  <g id="icon-32-hotel" transform="translate(-318 -1528)">
    <rect id="Rectangle_1182" data-name="Rectangle 1182" width="32" height="32" transform="translate(318 1528)" fill="rgba(255,255,255,0)"/>
    <g id="Icon_ionic-ios-bed" data-name="Icon ionic-ios-bed" transform="translate(319.613 1532.695)">
      <path id="Path_963" data-name="Path 963" d="M29.624,14.625H29.6a1.4,1.4,0,0,0-1.4,1.4.143.143,0,0,1-.141.141H5.217a.143.143,0,0,1-.141-.141,1.4,1.4,0,0,0-1.4-1.4H3.65a1.4,1.4,0,0,0-1.4,1.4V27.612a1.4,1.4,0,0,0,1.4,1.4h.026a1.4,1.4,0,0,0,1.4-1.4v-.4a.258.258,0,0,1,.257-.257H27.941a.258.258,0,0,1,.257.257v.4a1.4,1.4,0,0,0,1.4,1.4h.026a1.4,1.4,0,0,0,1.4-1.4V16.025A1.4,1.4,0,0,0,29.624,14.625Z" transform="translate(-2.25 -6.404)" fill="#fff"/>
      <path id="Path_964" data-name="Path 964" d="M5.858,14.231H7.3a.258.258,0,0,0,.257-.257V13.14a1.031,1.031,0,0,1,1.028-1.028h6.262a1.031,1.031,0,0,1,1.028,1.028v.835a.258.258,0,0,0,.257.257h1.541a.258.258,0,0,0,.257-.257V13.14a1.031,1.031,0,0,1,1.028-1.028h6.262A1.031,1.031,0,0,1,26.25,13.14v.835a.258.258,0,0,0,.257.257h1.445a.515.515,0,0,0,.514-.514V7.68A2.061,2.061,0,0,0,26.41,5.625H7.4A2.061,2.061,0,0,0,5.344,7.68v6.037A.515.515,0,0,0,5.858,14.231Z" transform="translate(-2.518 -5.625)" fill="#fff"/>
    </g>
  </g>
</svg>
