<svg xmlns="http://www.w3.org/2000/svg" width="64" height="64" viewBox="0 0 64 64">
  <g id="Group_783" data-name="Group 783" transform="translate(-366 -3726)">
    <rect id="Rectangle_1002" data-name="Rectangle 1002" width="64" height="64" rx="32" transform="translate(366 3726)" fill="#53682b"/>
    <path id="Icon_awesome-gift" data-name="Icon awesome-gift" d="M1.8,25.6a1.794,1.794,0,0,0,1.8,1.8h8.979V18.412H1.8Zm14.367,1.8h8.979a1.794,1.794,0,0,0,1.8-1.8V18.412H16.162ZM26.937,9.433H24.575a4.893,4.893,0,0,0,.567-2.245A4.946,4.946,0,0,0,20.2,2.25c-2.335,0-3.844,1.2-5.78,3.833C12.487,3.445,10.977,2.25,8.642,2.25A4.946,4.946,0,0,0,3.7,7.189a4.825,4.825,0,0,0,.567,2.245H1.8a1.794,1.794,0,0,0-1.8,1.8v4.49a.9.9,0,0,0,.9.9H27.835a.9.9,0,0,0,.9-.9v-4.49A1.794,1.794,0,0,0,26.937,9.433Zm-18.3,0a2.245,2.245,0,1,1,0-4.49c1.117,0,1.942.185,4.832,4.49H8.637Zm11.566,0H15.371c2.885-4.293,3.687-4.49,4.832-4.49a2.245,2.245,0,1,1,0,4.49Z" transform="translate(383.633 3743.18)" fill="#fff"/>
  </g>
</svg>
