<svg xmlns="http://www.w3.org/2000/svg" width="64" height="64" viewBox="0 0 64 64">
  <g id="Group_789" data-name="Group 789" transform="translate(-366 -3726)">
    <rect id="Rectangle_1002" data-name="Rectangle 1002" width="64" height="64" rx="32" transform="translate(366 3726)" fill="#53682b"/>
    <g id="Icon_ionic-ios-people" data-name="Icon ionic-ios-people" transform="translate(376.326 3737.605)">
      <path id="Path_968" data-name="Path 968" d="M28.352,27.207c-.971-.347-2.557-.364-3.259-.633a4.6,4.6,0,0,1-1.508-.7,9.319,9.319,0,0,1-.251-2.47,3.991,3.991,0,0,0,.858-1.213,13.486,13.486,0,0,0,.416-2.384s.572.243.8-.9c.191-.988.555-1.508.459-2.236s-.5-.555-.5-.555.5-.737.5-3.242c0-2.583-1.95-5.123-5.6-5.123s-5.608,2.548-5.608,5.123c0,2.5.494,3.242.494,3.242s-.407-.173-.5.555.26,1.248.459,2.236c.225,1.153.8.9.8.9a13.617,13.617,0,0,0,.416,2.384A3.991,3.991,0,0,0,17.18,23.4a9.319,9.319,0,0,1-.251,2.47,4.431,4.431,0,0,1-1.508.693c-.693.269-2.28.3-3.259.65a6.117,6.117,0,0,0-3.97,5.825H32.314A6.105,6.105,0,0,0,28.352,27.207Z" transform="translate(1.391 0)" fill="#fbfbfb"/>
      <path id="Path_969" data-name="Path 969" d="M11.619,22.181a5.884,5.884,0,0,0,2.9-.806c-1.343-2.037-.615-4.412-.893-6.631a3.657,3.657,0,0,0-4.048-3.536H9.539a3.668,3.668,0,0,0-4.013,3.536c-.277,2.21.494,4.854-.884,6.631.823.745,2.9.719,2.9.719h0a4.39,4.39,0,0,1-.087,1.456,2.189,2.189,0,0,1-1.04.477,20.111,20.111,0,0,0-2.245.624,3.649,3.649,0,0,0-1.959,3.224h6.96a6.227,6.227,0,0,1,2.774-2.583,5.82,5.82,0,0,1,2.141-.451s.329-.52-.754-.719a7.389,7.389,0,0,1-1.664-.581C11.507,23.351,11.619,22.181,11.619,22.181Z" transform="translate(0 0.805)" fill="#fbfbfb"/>
      <path id="Path_970" data-name="Path 970" d="M26.7,22.181a5.884,5.884,0,0,1-2.9-.806c1.343-2.037.615-4.412.893-6.631a3.657,3.657,0,0,1,4.048-3.536h.035A3.668,3.668,0,0,1,32.8,14.744c.277,2.21-.494,4.854.884,6.631-.823.745-2.9.719-2.9.719h0a4.39,4.39,0,0,0,.087,1.456,2.189,2.189,0,0,0,1.04.477,20.111,20.111,0,0,1,2.245.624,3.649,3.649,0,0,1,1.959,3.224h-6.96a6.227,6.227,0,0,0-2.774-2.583,5.82,5.82,0,0,0-2.141-.451s-.329-.52.754-.719a7.389,7.389,0,0,0,1.664-.581C26.816,23.351,26.7,22.181,26.7,22.181Z" transform="translate(5.026 0.805)" fill="#fbfbfb"/>
    </g>
  </g>
</svg>
