<svg xmlns="http://www.w3.org/2000/svg" width="32" height="32" viewBox="0 0 32 32">
  <g id="icon-32-weekend" transform="translate(-318 -1528)">
    <rect id="Rectangle_1182" data-name="Rectangle 1182" width="32" height="32" transform="translate(318 1528)" fill="rgba(255,255,255,0)"/>
    <path id="Icon_awesome-gift" data-name="Icon awesome-gift" d="M1.581,22.8a1.579,1.579,0,0,0,1.581,1.581h7.9v-7.9H1.581Zm12.647,1.581h7.9A1.579,1.579,0,0,0,23.713,22.8V16.478H14.228ZM23.713,8.574h-2.08a4.308,4.308,0,0,0,.5-1.976A4.354,4.354,0,0,0,17.785,2.25C15.73,2.25,14.4,3.3,12.7,5.624,10.992,3.3,9.663,2.25,7.608,2.25A4.354,4.354,0,0,0,3.261,6.6a4.247,4.247,0,0,0,.5,1.976H1.581A1.579,1.579,0,0,0,0,10.154v3.952a.793.793,0,0,0,.79.79H24.5a.793.793,0,0,0,.79-.79V10.154A1.579,1.579,0,0,0,23.713,8.574Zm-16.11,0a1.976,1.976,0,0,1,0-3.952c.983,0,1.709.163,4.254,3.952H7.6Zm10.182,0H13.531c2.539-3.779,3.246-3.952,4.254-3.952a1.976,1.976,0,1,1,0,3.952Z" transform="translate(321.352 1530.683)" fill="#f7f7f7"/>
  </g>
</svg>
