<svg xmlns="http://www.w3.org/2000/svg" width="24" height="24" viewBox="0 0 24 24">
  <g id="Group_684" data-name="Group 684" transform="translate(-502 -622)">
    <rect id="Rectangle_718" data-name="Rectangle 718" width="24" height="24" transform="translate(502 622)" fill="#53682b" opacity="0"/>
    <path id="Icon_material-local-offer" data-name="Icon material-local-offer" d="M19.969,11.375,12.1,3.507A1.738,1.738,0,0,0,10.868,3H4.748A1.754,1.754,0,0,0,3,4.748v6.12a1.745,1.745,0,0,0,.516,1.241l7.868,7.868a1.738,1.738,0,0,0,1.233.507,1.709,1.709,0,0,0,1.233-.516l6.12-6.12a1.709,1.709,0,0,0,.516-1.233,1.766,1.766,0,0,0-.516-1.241Zm-13.909-4A1.311,1.311,0,1,1,7.371,6.06,1.31,1.31,0,0,1,6.06,7.371Z" transform="translate(502.258 622.258)" fill="#53682b"/>
  </g>
</svg>
