<svg xmlns="http://www.w3.org/2000/svg" width="32" height="32" viewBox="0 0 32 32">
  <g id="icon-32-conf" transform="translate(-318 -1528)">
    <rect id="Rectangle_1182" data-name="Rectangle 1182" width="32" height="32" transform="translate(318 1528)" fill="rgba(255,255,255,0)"/>
    <g id="Icon_ionic-ios-people" data-name="Icon ionic-ios-people" transform="translate(318 1533.102)">
      <path id="Path_968" data-name="Path 968" d="M24.769,23.748c-.8-.285-2.1-.3-2.68-.52a3.786,3.786,0,0,1-1.24-.577,7.663,7.663,0,0,1-.207-2.031,3.281,3.281,0,0,0,.706-1,11.089,11.089,0,0,0,.342-1.96s.47.2.656-.741c.157-.812.456-1.24.378-1.839s-.413-.456-.413-.456a5.337,5.337,0,0,0,.413-2.665,4.265,4.265,0,0,0-4.6-4.212,4.28,4.28,0,0,0-4.611,4.212,5.416,5.416,0,0,0,.406,2.665s-.335-.143-.413.456.214,1.026.378,1.839c.185.948.656.741.656.741a11.2,11.2,0,0,0,.342,1.96,3.281,3.281,0,0,0,.706,1,7.663,7.663,0,0,1-.207,2.031,3.644,3.644,0,0,1-1.24.57c-.57.221-1.874.249-2.68.535a5.03,5.03,0,0,0-3.264,4.789H28.026A5.02,5.02,0,0,0,24.769,23.748Z" transform="translate(-2.133 -7.748)" fill="#f7f7f7"/>
      <path id="Path_969" data-name="Path 969" d="M9.948,20.231a4.838,4.838,0,0,0,2.38-.663c-1.1-1.675-.506-3.628-.734-5.452a3.007,3.007,0,0,0-3.328-2.908H8.237a3.016,3.016,0,0,0-3.3,2.908c-.228,1.817.406,3.991-.727,5.452a4.478,4.478,0,0,0,2.388.592h0a3.609,3.609,0,0,1-.071,1.2,1.8,1.8,0,0,1-.855.392,16.536,16.536,0,0,0-1.846.513,3,3,0,0,0-1.611,2.651H7.938a5.12,5.12,0,0,1,2.281-2.124,4.786,4.786,0,0,1,1.76-.371s.271-.428-.62-.592a6.075,6.075,0,0,1-1.368-.478C9.855,21.193,9.948,20.231,9.948,20.231Z" transform="translate(-2.215 -7.701)" fill="#f7f7f7"/>
      <path id="Path_970" data-name="Path 970" d="M26.188,20.231a4.838,4.838,0,0,1-2.38-.663c1.1-1.675.506-3.628.734-5.452a3.007,3.007,0,0,1,3.328-2.908H27.9a3.016,3.016,0,0,1,3.3,2.908c.228,1.817-.406,3.991.727,5.452a4.478,4.478,0,0,1-2.388.592h0a3.609,3.609,0,0,0,.071,1.2,1.8,1.8,0,0,0,.855.392,16.536,16.536,0,0,1,1.846.513,3,3,0,0,1,1.611,2.651H28.2a5.12,5.12,0,0,0-2.281-2.124,4.786,4.786,0,0,0-1.76-.371s-.271-.428.62-.592a6.075,6.075,0,0,0,1.368-.478C26.281,21.193,26.188,20.231,26.188,20.231Z" transform="translate(-1.921 -7.701)" fill="#f7f7f7"/>
    </g>
  </g>
</svg>
