<svg xmlns="http://www.w3.org/2000/svg" width="24" height="24" viewBox="0 0 24 24">
  <g id="Group_685" data-name="Group 685" transform="translate(-474 -622)">
    <rect id="Rectangle_717" data-name="Rectangle 717" width="24" height="24" transform="translate(474 622)" fill="none"/>
    <path id="Icon_awesome-user-alt" data-name="Icon awesome-user-alt" d="M9.944,11.187A5.594,5.594,0,1,0,4.351,5.594,5.6,5.6,0,0,0,9.944,11.187Zm4.972,1.243h-2.14a6.762,6.762,0,0,1-5.664,0H4.972A4.972,4.972,0,0,0,0,17.4v.622a1.865,1.865,0,0,0,1.865,1.865h16.16a1.865,1.865,0,0,0,1.865-1.865V17.4A4.972,4.972,0,0,0,14.917,12.43Z" transform="translate(476.056 624.056)" fill="#53682b"/>
  </g>
</svg>
